<svg xmlns="http://www.w3.org/2000/svg" xmlns:xlink="http://www.w3.org/1999/xlink" viewBox="0 0 92.87 51.32"><defs><style>.cls-1{fill:#b78344;}.cls-2{fill:#fff;}.cls-3{fill:#d1a56b;}.cls-4{fill:url(#Degradado_sin_nombre_5);}.cls-5{fill:url(#Degradado_sin_nombre_16);}.cls-6{fill:#070a0c;}.cls-10,.cls-11,.cls-12,.cls-6,.cls-8,.cls-9{opacity:0.27;}.cls-7{fill:url(#Degradado_sin_nombre_16-2);}.cls-8{fill:url(#Degradado_sin_nombre_30);}.cls-9{fill:url(#Degradado_sin_nombre_30-2);}.cls-10{fill:url(#Degradado_sin_nombre_30-3);}.cls-11{fill:url(#Degradado_sin_nombre_30-4);}.cls-12{fill:url(#Degradado_sin_nombre_30-5);}</style><linearGradient id="Degradado_sin_nombre_5" x1="53.2" y1="7.52" x2="58.72" y2="16.65" gradientUnits="userSpaceOnUse"><stop offset="0" stop-color="#d1a56b"/><stop offset="0.56" stop-color="#c39255"/><stop offset="1" stop-color="#b78344"/></linearGradient><linearGradient id="Degradado_sin_nombre_16" x1="55.93" y1="46.92" x2="51.56" y2="44.31" gradientUnits="userSpaceOnUse"><stop offset="0" stop-color="#93632f"/><stop offset="0.81" stop-color="#b78344"/></linearGradient><linearGradient id="Degradado_sin_nombre_16-2" x1="33.28" y1="16.06" x2="34.91" y2="16.06" xlink:href="#Degradado_sin_nombre_16"/><linearGradient id="Degradado_sin_nombre_30" x1="17.96" y1="32.13" x2="20.15" y2="31.13" gradientUnits="userSpaceOnUse"><stop offset="0" stop-color="#070a0c"/><stop offset="1" stop-color="#fff"/></linearGradient><linearGradient id="Degradado_sin_nombre_30-2" x1="8.79" y1="20.38" x2="10.68" y2="20.38" xlink:href="#Degradado_sin_nombre_30"/><linearGradient id="Degradado_sin_nombre_30-3" x1="27.53" y1="20.99" x2="29.71" y2="21.91" xlink:href="#Degradado_sin_nombre_30"/><linearGradient id="Degradado_sin_nombre_30-4" x1="44.54" y1="11.92" x2="50.3" y2="12.05" xlink:href="#Degradado_sin_nombre_30"/><linearGradient id="Degradado_sin_nombre_30-5" x1="46.2" y1="29.96" x2="49.51" y2="29.9" xlink:href="#Degradado_sin_nombre_30"/></defs><g id="Capa_2" data-name="Capa 2"><g id="Capa_2-2" data-name="Capa 2"><polygon class="cls-1" points="33.28 7.83 24.2 7.83 52.48 51.32 62.81 51.32 33.28 7.83"/><path class="cls-2" d="M0,7.83H8.85l7.79,20.41L24.2,7.83h9.08V51.32H24V29.73l-3.5,8.48H12.77l-4-9.6V51.32H0Z"/><path class="cls-2" d="M37,7.81H59.66v8.35H46.53v9.59h11.9v8.47H46.53V51.31H37Z"/><polygon class="cls-2" points="63.69 7.8 53.91 7.8 59.33 16.16 82.12 51.32 92.46 51.32 63.69 7.8"/><polygon class="cls-3" points="81.25 7.8 91.03 7.8 62.81 51.32 52.48 51.32 81.25 7.8"/><polygon class="cls-3" points="92.87 0 72.47 10.54 90.34 16.51 92.87 0"/><polyline class="cls-4" points="58.03 16.16 52.48 7.83 53.91 7.8 59.33 16.16"/><polygon class="cls-5" points="55.1 39.96 50.04 47.53 52.48 51.32 57.58 43.61 55.1 39.96"/><polygon class="cls-6" points="77.49 28.68 72.47 36.43 74.06 38.88 79.02 30.99 77.49 28.68"/><polygon class="cls-7" points="34.91 10.22 34.91 24.3 33.28 21.8 33.28 7.83 34.91 10.22"/><polygon class="cls-8" points="21.85 34.98 20.52 38.21 16.64 28.24 17.87 24.92 21.85 34.98"/><polygon class="cls-9" points="10.59 32.94 8.79 28.61 8.85 7.83 10.68 12.63 10.59 32.94"/><polygon class="cls-10" points="24.02 35.09 33.28 13.89 33.28 7.83 24.02 29.93 24.02 35.09"/><rect class="cls-11" x="46.53" y="7.83" width="2.57" height="8.33"/><rect class="cls-12" x="46.53" y="25.75" width="2.57" height="8.37"/></g></g></svg>