<svg xmlns="http://www.w3.org/2000/svg" xmlns:xlink="http://www.w3.org/1999/xlink" viewBox="0 0 548.88 123.82"><defs><style>.cls-1{fill:#b78344;}.cls-2{fill:#fff;}.cls-13,.cls-3{fill:#d1a56b;}.cls-4{fill:url(#Degradado_sin_nombre_5);}.cls-5{fill:url(#Degradado_sin_nombre_16);}.cls-6{fill:#070a0c;}.cls-10,.cls-11,.cls-12,.cls-6,.cls-8,.cls-9{opacity:0.27;}.cls-7{fill:url(#Degradado_sin_nombre_16-2);}.cls-8{fill:url(#Degradado_sin_nombre_30);}.cls-9{fill:url(#Degradado_sin_nombre_30-2);}.cls-10{fill:url(#Degradado_sin_nombre_30-3);}.cls-11{fill:url(#Degradado_sin_nombre_30-4);}.cls-12{fill:url(#Degradado_sin_nombre_30-5);}.cls-13{font-size:70px;font-family:Arial-BoldMT, Arial;font-weight:700;}</style><linearGradient id="Degradado_sin_nombre_5" x1="101.04" y1="14.28" x2="111.52" y2="31.63" gradientUnits="userSpaceOnUse"><stop offset="0" stop-color="#d1a56b"/><stop offset="0.56" stop-color="#c39255"/><stop offset="1" stop-color="#b78344"/></linearGradient><linearGradient id="Degradado_sin_nombre_16" x1="106.22" y1="89.11" x2="97.92" y2="84.15" gradientUnits="userSpaceOnUse"><stop offset="0" stop-color="#93632f"/><stop offset="0.81" stop-color="#b78344"/></linearGradient><linearGradient id="Degradado_sin_nombre_16-2" x1="63.21" y1="30.51" x2="66.3" y2="30.51" xlink:href="#Degradado_sin_nombre_16"/><linearGradient id="Degradado_sin_nombre_30" x1="34.11" y1="61.02" x2="38.26" y2="59.12" gradientUnits="userSpaceOnUse"><stop offset="0" stop-color="#070a0c"/><stop offset="1" stop-color="#fff"/></linearGradient><linearGradient id="Degradado_sin_nombre_30-2" x1="16.69" y1="38.71" x2="20.29" y2="38.71" xlink:href="#Degradado_sin_nombre_30"/><linearGradient id="Degradado_sin_nombre_30-3" x1="52.29" y1="39.86" x2="56.42" y2="41.6" xlink:href="#Degradado_sin_nombre_30"/><linearGradient id="Degradado_sin_nombre_30-4" x1="84.59" y1="22.65" x2="95.53" y2="22.88" xlink:href="#Degradado_sin_nombre_30"/><linearGradient id="Degradado_sin_nombre_30-5" x1="87.74" y1="56.9" x2="94.03" y2="56.78" xlink:href="#Degradado_sin_nombre_30"/></defs><g id="Capa_2" data-name="Capa 2"><g id="Capa_2-2" data-name="Capa 2"><polygon class="cls-1" points="63.21 14.87 45.96 14.87 99.67 97.47 119.3 97.47 63.21 14.87"/><path class="cls-2" d="M0,14.87H16.8L31.6,53.63,46,14.87H63.21v82.6H45.63v-41L39,72.56H24.24L16.69,54.33V97.47H0Z"/><path class="cls-2" d="M70.35,14.84h43V30.69H88.38v18.2H111V65H88.38V97.44h-18Z"/><polygon class="cls-2" points="120.95 14.81 102.38 14.81 112.68 30.69 155.97 97.47 175.6 97.47 120.95 14.81"/><polygon class="cls-3" points="154.31 14.81 172.88 14.81 119.3 97.47 99.67 97.47 154.31 14.81"/><polygon class="cls-3" points="176.38 0 137.63 20.02 171.57 31.35 176.38 0"/><polyline class="cls-4" points="110.21 30.69 99.67 14.87 102.38 14.81 112.68 30.69"/><polygon class="cls-5" points="104.65 75.9 95.04 90.28 99.67 97.47 109.35 82.82 104.65 75.9"/><polygon class="cls-6" points="147.17 54.47 137.63 69.19 140.65 73.84 150.07 58.86 147.17 54.47"/><polygon class="cls-7" points="66.3 19.42 66.3 46.15 63.21 41.4 63.21 14.87 66.3 19.42"/><polygon class="cls-8" points="41.5 66.43 38.96 72.56 31.6 53.63 33.94 47.33 41.5 66.43"/><polygon class="cls-9" points="20.12 62.55 16.69 54.33 16.8 14.87 20.29 24 20.12 62.55"/><polygon class="cls-10" points="45.63 66.65 63.21 26.38 63.21 14.87 45.63 56.84 45.63 66.65"/><rect class="cls-11" x="88.38" y="14.87" width="4.87" height="15.82"/><rect class="cls-12" x="88.38" y="48.89" width="4.87" height="15.89"/><text class="cls-13" transform="translate(198.81 97.47)">MyFenocX</text></g></g></svg>