<svg xmlns="http://www.w3.org/2000/svg" xmlns:xlink="http://www.w3.org/1999/xlink" viewBox="0 0 111.04 111.04"><defs><style>.cls-1{fill:#fff;opacity:0.5;}.cls-2{fill:#b78344;}.cls-3{fill:#1c2228;}.cls-4{fill:#e8a452;}.cls-5{fill:url(#Degradado_sin_nombre_16);}.cls-6{fill:#070a0c;}.cls-7{fill:url(#Degradado_sin_nombre_16-2);}.cls-8{fill:url(#Degradado_sin_nombre_10);}.cls-9{fill:url(#Degradado_sin_nombre_10-2);}.cls-10{fill:url(#Degradado_sin_nombre_10-3);}.cls-11{fill:url(#Degradado_sin_nombre_12);}.cls-12{fill:url(#Degradado_sin_nombre_10-4);}</style><linearGradient id="Degradado_sin_nombre_16" x1="65.55" y1="75.12" x2="61.18" y2="72.51" gradientUnits="userSpaceOnUse"><stop offset="0" stop-color="#93632f"/><stop offset="0.81" stop-color="#b78344"/></linearGradient><linearGradient id="Degradado_sin_nombre_16-2" x1="42.9" y1="44.26" x2="44.53" y2="44.26" xlink:href="#Degradado_sin_nombre_16"/><linearGradient id="Degradado_sin_nombre_10" x1="27.58" y1="60.33" x2="29.77" y2="59.33" gradientUnits="userSpaceOnUse"><stop offset="0" stop-color="#070a0c"/><stop offset="1" stop-color="#1c2228"/></linearGradient><linearGradient id="Degradado_sin_nombre_10-2" x1="18.41" y1="48.58" x2="20.31" y2="48.58" xlink:href="#Degradado_sin_nombre_10"/><linearGradient id="Degradado_sin_nombre_10-3" x1="37.15" y1="49.19" x2="39.33" y2="50.11" xlink:href="#Degradado_sin_nombre_10"/><linearGradient id="Degradado_sin_nombre_12" x1="54.16" y1="40.1" x2="59.92" y2="40.22" gradientUnits="userSpaceOnUse"><stop offset="0.25" stop-color="#070a0c"/><stop offset="0.84" stop-color="#1c2228"/></linearGradient><linearGradient id="Degradado_sin_nombre_10-4" x1="55.82" y1="58.16" x2="59.13" y2="58.1" xlink:href="#Degradado_sin_nombre_10"/></defs><g id="Capa_2" data-name="Capa 2"><g id="Capa_2-2" data-name="Capa 2"><rect class="cls-1" width="111.04" height="111.04" rx="19.22"/><polygon class="cls-2" points="42.9 36.03 33.82 36.03 62.1 79.52 72.44 79.52 42.9 36.03"/><path class="cls-3" d="M9.62,36h8.85l7.79,20.41L33.82,36H42.9V79.52H33.65V57.93l-3.51,8.48H22.39l-4-9.6V79.52H9.62Z"/><path class="cls-3" d="M46.66,36H69.28v8.35H56.16V54H68.05v8.47H56.16V79.51h-9.5Z"/><polygon class="cls-3" points="73.31 36 63.53 36 68.95 44.36 91.75 79.52 102.08 79.52 73.31 36"/><polygon class="cls-4" points="90.87 36 100.65 36 72.44 79.52 62.1 79.52 90.87 36"/><polygon class="cls-4" points="102.5 28.2 82.09 38.74 99.96 44.71 102.5 28.2"/><polyline class="cls-4" points="67.65 44.35 62.1 36.01 63.53 35.98 68.95 44.35"/><polygon class="cls-5" points="64.73 68.16 59.66 75.74 62.1 79.52 67.2 71.81 64.73 68.16"/><polygon class="cls-6" points="87.11 56.88 82.09 64.63 83.68 67.08 88.64 59.2 87.11 56.88"/><polygon class="cls-7" points="44.53 38.42 44.53 52.5 42.9 50 42.9 36.03 44.53 38.42"/><polygon class="cls-8" points="31.47 63.18 30.14 66.41 26.26 56.44 27.49 53.12 31.47 63.18"/><polygon class="cls-9" points="20.21 61.14 18.41 56.81 18.47 36.03 20.31 40.84 20.21 61.14"/><polygon class="cls-10" points="33.65 63.29 42.9 42.09 42.9 36.03 33.65 58.13 33.65 63.29"/><rect class="cls-11" x="56.16" y="36" width="2.57" height="8.33"/><rect class="cls-12" x="56.16" y="53.95" width="2.57" height="8.37"/></g></g></svg>